# xmcd CD database file
#
# Track frame offsets:
#	150
#	16545
#	40528
#	53761
#	70379
#	95014
#	114085
#	138873
#	153659
#	171990
#	195660
#	213387
#	227437
#	243940
#	270996
#	284684
#
# Disc length: 3951 seconds
#
# Revision: 1
# Processed by: cddbd v1.5.2PL0 Copyright (c) Steve Scherf et al.
# Submitted via: CDex 2.18
#
DISCID=d20f6d10
DTITLE=Tim Casey and The Bluescats - Rockin', Jumpin', Swingin' The Blues
DYEAR=2004
DGENRE=Blues
TTITLE0=Rocket To The Moon
TTITLE1=Gators
TTITLE2=Baby's Boogie
TTITLE3=Sit Right Here
TTITLE4=Rock With Me Tonight
TTITLE5=Dynamite Nitro
TTITLE6=Kansas City
TTITLE7=Big Ten Inch
TTITLE8=Last Time
TTITLE9=Beautician Blues
TTITLE10=Two Wheels
TTITLE11=Good Rockin' Daddy
TTITLE12=That's Alright Mama
TTITLE13=Sexy Swing
TTITLE14=Come On
TTITLE15=Birthday Boogie
EXTD=YEAR: 2004
EXTT0=
EXTT1=
EXTT2=
EXTT3=
EXTT4=
EXTT5=
EXTT6=
EXTT7=
EXTT8=
EXTT9=
EXTT10=
EXTT11=
EXTT12=
EXTT13=
EXTT14=
EXTT15=
PLAYORDER=
